<svg xmlns="http://www.w3.org/2000/svg" viewBox="0 0 102.39 58.91"><defs><style>.cls-1{fill:#333;}.cls-2{fill:#fff;}.cls-3{fill:none;stroke:#ffb0b7;stroke-linecap:round;stroke-miterlimit:10;stroke-width:2.39px;}</style></defs><title>cloche</title><g id="Layer_2" data-name="Layer 2"><g id="Layer_1-2" data-name="Layer 1"><path class="cls-1" d="M85.82,53.88c-.88-19.16-16-34.4-34.63-34.4S17.45,34.72,16.57,53.88Z"/><circle class="cls-1" cx="51.19" cy="19.21" r="2.31"/><path class="cls-1" d="M87.77,58.91H14.62a1.44,1.44,0,0,1-1.43-1.43h0a1.44,1.44,0,0,1,1.43-1.43H87.77a1.43,1.43,0,0,1,1.42,1.43h0A1.43,1.43,0,0,1,87.77,58.91Z"/><path class="cls-2" d="M50.62,21.7c-15.41,0-28,12.91-30.25,29.28L28,51C30.48,35.58,42.35,25.22,50.62,21.7Z"/><line class="cls-3" x1="51.12" y1="9.73" x2="51.12" y2="1.19"/><line class="cls-3" x1="10.49" y1="52.54" x2="1.19" y2="52.54"/><line class="cls-3" x1="91.9" y1="52.54" x2="101.19" y2="52.54"/><line class="cls-3" x1="79.98" y1="23.76" x2="86.55" y2="17.19"/><line class="cls-3" x1="22.41" y1="23.76" x2="15.84" y2="17.19"/><line class="cls-3" x1="66.79" y1="14.94" x2="69.09" y2="9.35"/><line class="cls-3" x1="88.8" y1="36.95" x2="94.5" y2="34.38"/><line class="cls-3" x1="35.33" y1="14.94" x2="33.02" y2="9.35"/><line class="cls-3" x1="13.32" y1="36.95" x2="7.61" y2="34.38"/></g></g></svg>