<svg xmlns="http://www.w3.org/2000/svg" viewBox="0 0 124.92 31.24"><defs><style>.cls-1{fill:none;stroke:#daa44e;stroke-miterlimit:10;stroke-width:2px;}.cls-2{fill:#daa44e;}</style></defs><title>Foodica logo_1</title><g id="Layer_2" data-name="Layer 2"><g id="Layer_1-2" data-name="Layer 1"><path class="cls-1" d="M22.09,6.44c2.19-1,5-1.31,6.82.28a7.31,7.31,0,0,1,2.3,6.54,8.39,8.39,0,0,1-4,5.77c-.46.27-1,.91-1.44.61a25,25,0,0,0-.12,10.27,88,88,0,0,0-19.06.18,82.5,82.5,0,0,0,.19-10.43S3.09,17.91,2,16.14a7.22,7.22,0,0,1,.61-8.32,5.86,5.86,0,0,1,8-.56,5.87,5.87,0,0,1,4.67-6.19C18.11.48,21.3,3.7,22.09,6.44Z"/><path class="cls-1" d="M8.09,19.49a8.5,8.5,0,0,0,3.14,0"/><path class="cls-1" d="M24.06,19.66l-2.62.07"/><path class="cls-1" d="M26.22,8.16a5.23,5.23,0,0,1,1.94,3.93"/><path class="cls-1" d="M15.19,4.29a3.13,3.13,0,0,1,2.55.93"/><path class="cls-1" d="M5.7,8.87a2.6,2.6,0,0,1,3,1.32"/><path class="cls-1" d="M10.08,29.28c-.19-2.62-.39-5.24-.58-7.86"/><path class="cls-1" d="M15.84,29.14c-.11-2-.17-4.79-.29-6.8"/><path class="cls-1" d="M21.15,29.52,21.24,22"/><path class="cls-2" d="M40.59,5.63a2.24,2.24,0,0,1,1-.46c.27,0,.9,0,1.89,0a6,6,0,0,1,2.44.43,1.67,1.67,0,0,1,1,1.71c0,.85-.34,1.28-1,1.28a5.45,5.45,0,0,1-1.21-.37,5.3,5.3,0,0,0-1.29-.38c-.83,0-1.33.5-1.49,1.5a20.37,20.37,0,0,0-.07,2.19v2.73h2.49c1,0,1.57.41,1.57,1.1,0,1-.71,1.52-2.14,1.57a5.85,5.85,0,0,1-.78,0c-.31,0-.67,0-1.07,0,0,.95.15,2.65.32,5.08s.25,4.81.25,7.11a1.37,1.37,0,0,1-.57,1.15,2,2,0,0,1-1.18.42q-1,0-1-1.14c0-2.14-.09-4.22-.25-6.24s-.29-4.14-.36-6.38c-2.14,0-3.39-.21-3.74-.64a1,1,0,0,1-.22-.64,1.16,1.16,0,0,1,.77-1.21,5.05,5.05,0,0,1,1.77-.29h1.42c.07-3.87.29-6.27.64-7.2A2.8,2.8,0,0,1,40.59,5.63Z"/><path class="cls-2" d="M54.83,14a4.93,4.93,0,0,1,4.22,2.46,10.28,10.28,0,0,1,1.66,5.9A10,10,0,0,1,59,28.22a5.36,5.36,0,0,1-9,0,9.51,9.51,0,0,1-1.72-5.51,11,11,0,0,1,1.57-6.21A5.61,5.61,0,0,1,54.83,14Zm-.43,2.93a2.82,2.82,0,0,0-2.46,1.57,6.23,6.23,0,0,0-1,3.31,6.84,6.84,0,0,0,1.07,4.14,3,3,0,0,0,2.42,1.42,2.91,2.91,0,0,0,3.1-2.1,9.23,9.23,0,0,0,.29-2.5Q57.86,16.93,54.4,16.92Z"/><path class="cls-2" d="M69.2,14a4.93,4.93,0,0,1,4.22,2.46,10.28,10.28,0,0,1,1.66,5.9,10.06,10.06,0,0,1-1.69,5.87,5.37,5.37,0,0,1-9,0,9.5,9.5,0,0,1-1.71-5.51,10.9,10.9,0,0,1,1.57-6.21A5.61,5.61,0,0,1,69.2,14Zm-.43,2.93a2.82,2.82,0,0,0-2.46,1.57,6.23,6.23,0,0,0-1,3.31,6.77,6.77,0,0,0,1.07,4.14,3,3,0,0,0,2.42,1.42,2.91,2.91,0,0,0,3.1-2.1,9.23,9.23,0,0,0,.29-2.5C72.23,18.87,71.07,16.92,68.77,16.92Z"/><path class="cls-2" d="M85.77,13.92l0-6.88q0-1.92,1.23-1.92c.82,0,1.28.35,1.37,1.07,0,.31.11,2.17.18,5.59s.18,6.64.34,9.63.23,5.79.23,8.38c0,.71-.54,1.07-1.6,1.07-.72,0-1.07-.5-1.07-1.5a5.7,5.7,0,0,1-3.64,1.21,5.35,5.35,0,0,1-4.33-2,7.42,7.42,0,0,1-1.66-4.92A12.86,12.86,0,0,1,78,18.18a7.18,7.18,0,0,1,3.73-3.65,7.69,7.69,0,0,1,3-.68A8.47,8.47,0,0,1,85.77,13.92Zm.2,4.87a3.9,3.9,0,0,0-.62-1.18,1.49,1.49,0,0,0-.77-.5,4.61,4.61,0,0,0-1-.09,3.24,3.24,0,0,0-1.39.43,3.56,3.56,0,0,0-1.39,1.39,7.86,7.86,0,0,0-1.14,4.05,6.42,6.42,0,0,0,.84,3.46,2.64,2.64,0,0,0,2.38,1.33,2.73,2.73,0,0,0,2.45-1.53,7.76,7.76,0,0,0,.89-3.92A13.24,13.24,0,0,0,86,18.79Z"/><path class="cls-2" d="M93.51,8.08a1.66,1.66,0,0,1,1.21.6A1.86,1.86,0,0,1,95.29,10a2,2,0,0,1-.62,1.34,1.79,1.79,0,0,1-1.3.67,1.69,1.69,0,0,1-1.23-.57,2,2,0,0,1-.56-1.46c0-1.14.62-1.76,1.86-1.85ZM95,26.76l0,2.49a1.44,1.44,0,0,1-.53,1.13,1.8,1.8,0,0,1-1.14.44.82.82,0,0,1-.93-.89Q92,18.56,92,17.35c0-.81,0-1.8.1-3,0-.43.32-.65.82-.65,1.26,0,2,.52,2.14,1.54a10.07,10.07,0,0,1,.11,1.25L95,18.77Z"/><path class="cls-2" d="M99.91,17.92A8.05,8.05,0,0,1,103.14,15,8.38,8.38,0,0,1,107,14a8.16,8.16,0,0,1,3,.45c.75.3,1.12.69,1.12,1.18a3,3,0,0,1-.41,1.46,1.22,1.22,0,0,1-1.09.73,6.77,6.77,0,0,1-1.37-.41,6.12,6.12,0,0,0-1.44-.41,4.71,4.71,0,0,0-3.53,1.51,5.51,5.51,0,0,0-1.46,4,6.87,6.87,0,0,0,.8,3.73,3,3,0,0,0,2.76,1.23,7.58,7.58,0,0,0,2.69-.91,8.92,8.92,0,0,1,2.37-.91,1,1,0,0,1,.75.29,1,1,0,0,1,.29.71,2.58,2.58,0,0,1-1.09,1.8A9.21,9.21,0,0,1,107.63,30a8,8,0,0,1-2.89.62,5.22,5.22,0,0,1-4.47-2.24,10.23,10.23,0,0,1-1.63-6.13A7.85,7.85,0,0,1,99.91,17.92Z"/><path class="cls-2" d="M122.92,14c1,0,1.57.89,1.57,2.67v.61l-.07,2.49c0,.79,0,1.56,0,2.32l.54,8.06c0,.59-.61.89-1.82.89h-.52a.59.59,0,0,1-.57-.32,1.1,1.1,0,0,1,0-.79,1.71,1.71,0,0,0-.09-1,5.69,5.69,0,0,1-4.35,1.75q-5,0-5-7.77c0-2.88.54-5.05,1.62-6.53a5.45,5.45,0,0,1,4.66-2.21,8.65,8.65,0,0,1,2.85.5A1.48,1.48,0,0,1,122.92,14Zm-3.71,3.24a3.78,3.78,0,0,0-3,1.18c-.66.78-1,2.22-1,4.31Q115.19,28,118,28a2.9,2.9,0,0,0,1.66-.68A3.75,3.75,0,0,0,121,25.76a12.64,12.64,0,0,0,.68-4.21,7.52,7.52,0,0,0-.55-3.31A2,2,0,0,0,119.21,17.2Z"/></g></g></svg>