<svg xmlns="http://www.w3.org/2000/svg" viewBox="0 0 85 78.48"><defs><style>.cls-1{fill:#2b2828;}</style></defs><title>fork</title><g id="Layer_2" data-name="Layer 2"><g id="Layer_1-2" data-name="Layer 1"><path class="cls-1" d="M84.59,12.79h0a1.41,1.41,0,0,0-2,0L67.05,28.35a1.54,1.54,0,0,1-2,.23,1.47,1.47,0,0,1-.2-2.24L80.53,10.71a1.41,1.41,0,0,0,0-2l-.1-.1a1.41,1.41,0,0,0-2,0L62.89,24.19a1.54,1.54,0,0,1-2,.23,1.47,1.47,0,0,1-.2-2.24L76.37,6.55a1.41,1.41,0,0,0,0-2l-.1-.1a1.41,1.41,0,0,0-2,0L58.63,20.13a1.53,1.53,0,0,1-2,.22,1.47,1.47,0,0,1-.19-2.24L72.21,2.39a1.41,1.41,0,0,0,0-2h0a1.41,1.41,0,0,0-2,0c-4.42,4.17-22.15,21-22.67,22.82-1,3.6.59,5.61-.66,9.38s-6,9-12,14.17C23.56,56.68,8.38,66.13,7.11,69.58c-1.57,4.28.39,6.62,1,7.26s3,2.62,7.26,1C18.87,76.62,28.32,61.44,38.25,50c5.18-6,10.4-10.69,14.17-12s5.78.37,9.38-.66c1.85-.52,18.65-18.25,22.82-22.67A1.41,1.41,0,0,0,84.59,12.79Z"/><path class="cls-1" d="M2.64,2.16A1.54,1.54,0,0,0,0,3.25a33.24,33.24,0,0,0,4,14.4c4,7.7,20.23,24.9,24.46,26.74,3.84,1.66,3.8-.4,5.84.08,3.27.76,5.24,3.56,10.42,9.51,9.92,11.41,15.59,22.64,19,23.91,4.28,1.57,6.62-.39,7.26-1s2.62-3,1-7.26C70.8,66.13,42,43.65,36.31,37.06,33.89,34.24,10.21,9.35,2.64,2.16Z"/></g></g></svg>