<svg xmlns="http://www.w3.org/2000/svg" viewBox="0 0 192.88 201.23"><defs><style>.cls-1,.cls-2,.cls-3,.cls-5{fill:#383838;}.cls-2{font-size:10.98px;font-family:Antonio-Light, Antonio Light;font-weight:300;}.cls-3{font-size:87.5px;font-family:KittenBold;letter-spacing:-0.08em;}.cls-4{letter-spacing:-0.06em;}.cls-5{font-size:33.57px;font-family:LuxiSerif-BoldOblique, LuxiSerif BoldOblique;font-weight:700;font-style:oblique;}.cls-6{letter-spacing:-0.01em;}</style></defs><title>Asset 15</title><g id="Layer_2" data-name="Layer 2"><g id="OBJECTS"><path class="cls-1" d="M126.68,46.68a1,1,0,0,0,.58-1.83,63.37,63.37,0,0,0-72.59.45,1,1,0,0,0,.59,1.83h0a1,1,0,0,0,.58-.19,61.41,61.41,0,0,1,70.28-.44.94.94,0,0,0,.56.18Z"/><path class="cls-1" d="M153.18,105.27a1,1,0,0,0-1,.86A61.53,61.53,0,0,1,37.13,126.37a1,1,0,0,0-.87-.53h0a1,1,0,0,0-.9,1.47,63.53,63.53,0,0,0,118.82-20.9,1,1,0,0,0-1-1.14Z"/><text class="cls-2" transform="translate(40.5 161.31) rotate(36.28)">P</text><text class="cls-2" transform="translate(50.43 168.05) rotate(27.88)">R</text><text class="cls-2" transform="matrix(0.94, 0.34, -0.34, 0.94, 61.3, 173.27)">E</text><text class="cls-2" transform="translate(72.38 176.84) rotate(10.33)">M</text><text class="cls-2" transform="translate(87.2 178.86) rotate(1.98)">I</text><text class="cls-2" transform="matrix(0.99, -0.1, 0.1, 0.99, 95.92, 178.9)">U</text><text class="cls-2" transform="translate(109.2 177.08) rotate(-15.77)">M</text><text class="cls-2" transform="matrix(0.91, -0.4, 0.4, 0.91, 123.37, 172.39)"> </text><text class="cls-2" transform="translate(130.95 168.76) rotate(-30.99)">B</text><text class="cls-2" transform="matrix(0.77, -0.63, 0.63, 0.77, 141.05, 162.15)">L</text><text class="cls-2" transform="translate(149.55 154.65) rotate(-47.3)">E</text><text class="cls-2" transform="translate(157.1 145.88) rotate(-56.05)">N</text><text class="cls-2" transform="translate(164.19 134.44) rotate(-65.45)">D</text><text class="cls-2" transform="translate(169.3 121.95) rotate(-74.2)">S</text><text class="cls-2" transform="translate(171.97 110.81) rotate(-81.15)"> </text><path class="cls-1" d="M91.3,188.5a91.3,91.3,0,1,1,91.3-91.3A91.41,91.41,0,0,1,91.3,188.5Zm0-180.58A89.29,89.29,0,1,0,180.58,97.2,89.39,89.39,0,0,0,91.3,7.92Z"/><text class="cls-2" transform="matrix(0.74, -0.68, 0.68, 0.74, 39.95, 45.72)">C</text><text class="cls-2" transform="translate(48.38 38.46) rotate(-33.16)">O</text><text class="cls-2" transform="translate(59.15 32) rotate(-24.05)">F</text><text class="cls-2" transform="matrix(0.96, -0.27, 0.27, 0.96, 68.78, 28.1)">F</text><text class="cls-2" transform="translate(78.86 25.6) rotate(-7.79)">E</text><text class="cls-2" transform="translate(89.27 24.54) rotate(0.5)">E</text><text class="cls-2" transform="translate(99.74 25.04) rotate(7.63)"> </text><text class="cls-2" transform="matrix(0.97, 0.25, -0.25, 0.97, 107.08, 26.25)">S</text><text class="cls-2" transform="translate(117.07 29.21) rotate(23.65)">H</text><text class="cls-2" transform="matrix(0.84, 0.55, -0.55, 0.84, 128, 34.44)">O</text><text class="cls-2" transform="matrix(0.74, 0.68, -0.68, 0.74, 138.23, 41.72)">P</text><text class="cls-3" transform="matrix(0.99, -0.15, 0.15, 0.99, 14.86, 128.44)">C<tspan class="cls-4" x="43.75" y="0">old</tspan></text><text class="cls-5" transform="matrix(0.99, -0.15, 0.15, 0.99, 62.29, 152.45)">b<tspan class="cls-6" x="19.1" y="0">r</tspan><tspan x="29.74" y="0">ew</tspan></text><path class="cls-1" d="M77,60.15c-.76-1.18-2.82-3.53-4.63-2.67-1.9.63-1.78,3.74-1.52,5.13a19.48,19.48,0,0,0,5.39,10.15c.5.49,1.89,2,2.87,1.62s.94-2.45,1-3.15A19.42,19.42,0,0,0,77,60.15Z"/><path class="cls-1" d="M96.31,63.57c.61-1.66,1.4-5.47-.82-6.63-2.06-1.43-5.08,1-6.27,2.34a24.4,24.4,0,0,0-6,13c-.12.87-.57,3.4.54,4.08s3.15-.9,3.87-1.41A24.34,24.34,0,0,0,96.31,63.57Z"/></g></g></svg>