<svg xmlns="http://www.w3.org/2000/svg" viewBox="0 0 215.1 185.63"><defs><style>.cls-1{font-size:96.35px;font-family:NautilusPompilius;letter-spacing:-0.02em;}.cls-1,.cls-2,.cls-3,.cls-5{fill:#383838;}.cls-3{font-size:54.6px;font-family:KittenBold;letter-spacing:-0.03em;}.cls-4{letter-spacing:-0.02em;}.cls-5{font-size:6.98px;font-family:Mohave-Light, Mohave Light;font-weight:300;letter-spacing:0.5em;}.cls-6{letter-spacing:0.48em;}</style></defs><title>logo-2_2</title><g id="Layer_2" data-name="Layer 2"><g id="OBJECTS"><text class="cls-1" transform="matrix(1, -0.07, 0.07, 1, 10.78, 137.5)">brew</text><path class="cls-2" d="M147.28,55.37c-1.82.14-2.47,1.88-2.35,3.49.15,1.86,1.32,3.17,2.83,3.06s2.46-1.59,2.31-3.49C150,57,149.1,55.23,147.28,55.37Z"/><path class="cls-2" d="M135.9,47.4c-.11-1.43-1-3.2-2.79-3s-2.47,1.88-2.35,3.49c.15,1.85,1.32,3.17,2.83,3S136.05,49.31,135.9,47.4Z"/><path class="cls-2" d="M157.29,54.66a2.46,2.46,0,0,0-2.17,2.09,2.18,2.18,0,0,0-.06.63l.11,1.46a3.79,3.79,0,0,0,.12.62,2.38,2.38,0,0,0,2.45,1.62c1.63-.12,2.47-1.53,2.32-3.47C159.93,55.91,158.92,54.53,157.29,54.66Z"/><path class="cls-2" d="M142.36,24.68A24.59,24.59,0,1,0,167,49.27,24.59,24.59,0,0,0,142.36,24.68Zm10,17c2.76-.22,3.69,2.15,3.81,3.71a5.61,5.61,0,0,1,0,.72l-5.95.47a2.72,2.72,0,0,0,3.14,2.71,5.66,5.66,0,0,0,2.31-.62l.35,1.08a6.94,6.94,0,0,1-2.78.75,4,4,0,0,1-4.5-4C148.59,44,149.94,41.87,152.41,41.68Zm-30.93,7a4.31,4.31,0,0,1,4.19-4.85,5.29,5.29,0,0,1,2.17.27l-.25,1.22a3.58,3.58,0,0,0-1.82-.26A2.94,2.94,0,0,0,123,48.44a2.92,2.92,0,0,0,3.19,2.94,4.34,4.34,0,0,0,1.85-.57l.36,1.14a5.77,5.77,0,0,1-2.4.68A4,4,0,0,1,121.48,48.63Zm8,15.86a4.92,4.92,0,0,1-2.43-.39l.3-1.2a4,4,0,0,0,2.07.45c1.12-.09,1.6-.69,1.55-1.39s-.53-1.1-1.7-1.43c-1.56-.43-2.34-1.21-2.42-2.23-.11-1.36.9-2.57,2.72-2.71a4.39,4.39,0,0,1,2.13.36l-.3,1.16a3.25,3.25,0,0,0-1.77-.36c-.91.07-1.38.63-1.33,1.27s.59,1,1.72,1.3c1.52.45,2.33,1.12,2.43,2.38C132.56,63.19,131.49,64.33,129.48,64.49Zm10.8-1-.39-4.86c-.1-1.37-.7-2.48-2.15-2.37a2.23,2.23,0,0,0-2,1.7,1.78,1.78,0,0,0,0,.74l.4,5.11-1.54.12L133.68,52h-.07a4,4,0,0,1-4.4-4,4.14,4.14,0,0,1,3.85-4.82c2.43-.19,4.21,1.45,4.41,4a4.17,4.17,0,0,1-2.27,4.39l.39,5h0a2.92,2.92,0,0,1,1-1.17,3.08,3.08,0,0,1,1.54-.56c1.14-.09,3,.47,3.24,3.39l.39,5ZM140.86,44l.57,7.3-1.52.12-.57-7.3-1.19.09L138.06,43l1.19-.09,0-.28a3.94,3.94,0,0,1,.72-3,2.9,2.9,0,0,1,2.07-1,2.67,2.67,0,0,1,1.23.21L143,40.07a2.12,2.12,0,0,0-.92-.14c-1.21.09-1.46,1.15-1.36,2.48l0,.37,3.55-.28,0-.4a4,4,0,0,1,.77-3,2.89,2.89,0,0,1,2-1,3.35,3.35,0,0,1,1.33.14l-.1,1.21a2.23,2.23,0,0,0-1-.12c-1.29.1-1.55,1.28-1.45,2.58l0,.45,2-.16.09,1.17-2,.16.57,7.3L145,51l-.57-7.3Zm6.92,19.13a4.05,4.05,0,0,1-4.4-4,4.15,4.15,0,0,1,3.85-4.83c2.43-.19,4.21,1.45,4.41,4A4.15,4.15,0,0,1,147.78,63.08Zm10.32-.81a3,3,0,0,1-2.71-1.13h0l.35,4.6-1.52.12-.71-9.17c-.09-1.09-.19-2-.29-2.76l1.38-.11.19,1.45h0a3.31,3.31,0,0,1,2.88-1.88c2.05-.16,3.72,1.45,3.92,4C161.83,60.46,160.1,62.11,158.1,62.27Zm4.07-13.66a5.55,5.55,0,0,0,2.31-.63l.35,1.09a6.91,6.91,0,0,1-2.77.74,4,4,0,0,1-4.5-3.94c-.2-2.56,1.15-4.69,3.61-4.88,2.77-.21,3.69,2.16,3.81,3.72a6,6,0,0,1,0,.72l-6,.46A2.72,2.72,0,0,0,162.17,48.61Z"/><path class="cls-2" d="M152.37,42.79a2.54,2.54,0,0,0-2.16,2.68l4.49-.35A2.19,2.19,0,0,0,152.37,42.79Z"/><path class="cls-2" d="M161.14,42.1A2.56,2.56,0,0,0,159,44.79l4.5-.35A2.21,2.21,0,0,0,161.14,42.1Z"/><path class="cls-2" d="M172.92,62.36c.53.42,2.58-.93,4.43-4.29a24.49,24.49,0,0,0,2.47-14.45,31.15,31.15,0,0,0-5.1-13.5c-2.09-3-3.91-4.44-4.49-4.06s.06,2.54,1.18,5.75a60.55,60.55,0,0,1,3.19,12.44,35.63,35.63,0,0,1-.71,12.46C173.15,59.89,172.31,61.9,172.92,62.36Z"/><path class="cls-2" d="M46.94,175.51c-.09,0-.16.26-.19.78a5.73,5.73,0,0,0,.44,2.27,7.63,7.63,0,0,0,2.32,3A14.08,14.08,0,0,0,54.05,184a42.1,42.1,0,0,0,13.48,1.67,57.11,57.11,0,0,0,17.72-3.07,99.61,99.61,0,0,0,19.56-9.31c6.65-4,13.41-8.69,20.45-13.6,3.52-2.46,7.13-4.91,10.86-7.43a68.25,68.25,0,0,1,11.49-6.58,26.44,26.44,0,0,1,6.17-1.78,14.2,14.2,0,0,1,1.57-.17,11.58,11.58,0,0,1,1.55-.05,12.75,12.75,0,0,1,3,.39,5.38,5.38,0,0,1,2.16,1.05,2.17,2.17,0,0,1,.53.67,2.33,2.33,0,0,1,.25.8,2.38,2.38,0,0,1-.55,1.64,8.47,8.47,0,0,1-2.06,1.88,16,16,0,0,1-2.84,1.53,22.59,22.59,0,0,1-3.11,1.12,29.1,29.1,0,0,1-6.61,1,79.21,79.21,0,0,1-13.76-.94l-26.78-3.3-24.25-2.88-11-1.27c-3.52-.4-6.93-.8-10.21-1.08a71.46,71.46,0,0,0-17.9.38,39.76,39.76,0,0,0-12.92,4.3,13.66,13.66,0,0,0-3.95,3.27,6.73,6.73,0,0,0-1.5,3.55c-.13,2.12.59,3,.69,3s-.09-1.09.35-2.79A6.24,6.24,0,0,1,28,153.24a13.29,13.29,0,0,1,3.74-2.49,41.06,41.06,0,0,1,12.37-3.2,73.66,73.66,0,0,1,17.12.41l45.18,6.33,26.74,3.61A82.83,82.83,0,0,0,147.87,159a30,30,0,0,0,15.28-4.54,13.56,13.56,0,0,0,3.36-3.15,8.2,8.2,0,0,0,1.21-2.38A7.17,7.17,0,0,0,168,146a7.59,7.59,0,0,0-.82-2.68,7.35,7.35,0,0,0-1.71-2.18A10.51,10.51,0,0,0,161.2,139a20,20,0,0,0-8.2-.25,30.75,30.75,0,0,0-7.38,2.17,71,71,0,0,0-12.32,7.17c-3.7,2.56-7.35,5.11-10.84,7.63-7,5-13.54,9.81-19.93,13.83A100.71,100.71,0,0,1,84,179.05a56.7,56.7,0,0,1-16.59,3.64A44.46,44.46,0,0,1,54.62,182c-3.39-.78-5.6-2.38-6.48-3.92S47.18,175.48,46.94,175.51Z"/><path class="cls-2" d="M114.59,2.29c.06.07.22.07.46,0l.43-.14c.17,0,.37-.09.58-.16a8.12,8.12,0,0,1,1.59-.22,8.61,8.61,0,0,1,2.13.28,7.66,7.66,0,0,1,4.43,3.32,7.68,7.68,0,0,1,.92,3.26,10,10,0,0,1-.62,3.87,11.6,11.6,0,0,1-2.25,3.74,15.36,15.36,0,0,1-3.82,3,34.68,34.68,0,0,1-10.86,3.59,87.82,87.82,0,0,1-13.12,1.26c-4.63.16-9.5.12-14.54.24-10,.21-19.84,1.07-28.47,3.48A56.82,56.82,0,0,0,30.22,38.36a33.93,33.93,0,0,0-6.32,6.77,22.71,22.71,0,0,0-3.11,6.27c-1.1,3.74-.62,5.91-.32,5.9s.67-2,2.22-5.14a30.3,30.3,0,0,1,9.79-10.85,58.29,58.29,0,0,1,20.18-8.79c8.15-2,17.48-2.71,27.39-2.92,5-.12,9.83-.11,14.62-.34a83.65,83.65,0,0,0,13.87-1.67A37.39,37.39,0,0,0,120.73,23a19.23,19.23,0,0,0,4.64-4.14,14.84,14.84,0,0,0,2.68-5.22,12.91,12.91,0,0,0,.4-5.35,10.35,10.35,0,0,0-1.79-4.54A9.51,9.51,0,0,0,120.14,0a8.64,8.64,0,0,0-2.72.18,6.56,6.56,0,0,0-1.81.81c-.22.16-.4.31-.55.43a4,4,0,0,0-.32.39C114.58,2.08,114.53,2.22,114.59,2.29Z"/><path class="cls-2" d="M27.07,25.26c-.39-.56-2.61.09-5.53,2.32a20.54,20.54,0,0,0-2.24,2A27.8,27.8,0,0,0,17,32.11,31.77,31.77,0,0,0,10.63,46.4a28.86,28.86,0,0,0-.36,3.42,21,21,0,0,0,0,3c.29,3.65,1.29,5.74,2,5.66S13.37,56.24,14,53c.16-.81.33-1.69.57-2.61s.5-1.91.77-2.94A57.88,57.88,0,0,1,17.72,41,58.29,58.29,0,0,1,21,34.91c.58-.89,1.1-1.77,1.67-2.54s1.06-1.51,1.55-2.17C26.14,27.57,27.52,25.88,27.07,25.26Z"/><path class="cls-2" d="M3.84,38.12c-.71-.14-1.58.79-2.37,2.49A17.09,17.09,0,0,0,0,47.88a12.69,12.69,0,0,0,2.38,7.45C3.67,57,5,57.46,5.55,57s.4-1.65.2-3.22a49.34,49.34,0,0,1-.49-6c0-2.39,0-4.71-.13-6.51S4.56,38.25,3.84,38.12Z"/><path class="cls-2" d="M193.31,41.78c-.73-.1-1.53,1.27-2.41,3.41s-1.88,5.05-3.24,8a43.33,43.33,0,0,1-4.2,7.12c-1.25,1.76-2.19,3-1.83,3.61s2.05.53,4.31-.85a17.73,17.73,0,0,0,6.49-7.67,22.85,22.85,0,0,0,2.12-9.52C194.52,43.4,194,41.87,193.31,41.78Z"/><text class="cls-3" transform="matrix(1, -0.07, 0.07, 1, 31.71, 77.46)">c<tspan class="cls-4" x="23.04" y="0">old</tspan></text><text class="cls-5" transform="matrix(1, -0.07, 0.07, 1, 72.57, 142.78)">BEST <tspan class="cls-6" x="33.08" y="0">C</tspan><tspan x="40.48" y="0">OOFEE</tspan></text></g></g></svg>