<svg xmlns="http://www.w3.org/2000/svg" viewBox="0 0 221.37 128.53"><defs><style>.cls-1{font-size:56.12px;font-family:FORQUE;}.cls-1,.cls-4,.cls-5{fill:#383838;}.cls-2{letter-spacing:-0.01em;}.cls-3{letter-spacing:-0.01em;}.cls-5{font-size:11.23px;font-family:Antonio-Light, Antonio Light;font-weight:300;letter-spacing:0.82em;}</style></defs><title>Asset 13</title><g id="Layer_2" data-name="Layer 2"><g id="OBJECTS"><text class="cls-1" transform="translate(1.72 100.58)"><tspan class="cls-2">c</tspan><tspan x="24.81" y="0">old</tspan><tspan x="100.51" y="0">b</tspan><tspan class="cls-3" x="132.44" y="0">r</tspan><tspan x="150.23" y="0">ew</tspan></text><path class="cls-4" d="M94.27,0C85.68,0,78.72,9.61,78.72,21.47s7,21.46,15.55,21.46,15.55-9.61,15.55-21.46S102.86,0,94.27,0Zm1.88,19.16c-1.91,5.37-5.21,10.79-.78,16,.6.7-.41,1.72-1,1-3-3.46-3.35-7.66-1.76-11.86.88-2.33,2.13-4.63,2.63-7.09.72-3.56-.43-6.64-1.85-9.86-.37-.84.86-1.57,1.24-.73C96.44,10.73,97.73,14.71,96.15,19.16Z"/><path class="cls-4" d="M124.35,27.88c.69-1.39,1.74-4.66-.09-5.88-1.66-1.45-4.54.42-5.7,1.45A21.32,21.32,0,0,0,112,34.27c-.19.74-.83,2.91.08,3.62s2.85-.49,3.52-.87A21.46,21.46,0,0,0,124.35,27.88Z"/><path class="cls-4" d="M132,48c1.91-.36,6-1.76,5.8-4.52.2-2.75-3.84-4.21-5.74-4.6a26.75,26.75,0,0,0-15.73,1.63c-.89.37-3.53,1.37-3.55,2.81s2.63,2.47,3.51,2.85A26.73,26.73,0,0,0,132,48Z"/><path class="cls-4" d="M63.51,27.88c-.69-1.39-1.74-4.66.09-5.88,1.66-1.45,4.54.42,5.7,1.45a21.32,21.32,0,0,1,6.55,10.82c.19.74.83,2.91-.08,3.62s-2.85-.49-3.52-.87A21.46,21.46,0,0,1,63.51,27.88Z"/><path class="cls-4" d="M55.87,48c-1.91-.36-6-1.76-5.8-4.52-.2-2.75,3.84-4.21,5.74-4.6a26.75,26.75,0,0,1,15.73,1.63c.89.37,3.53,1.37,3.55,2.81s-2.63,2.47-3.51,2.85A26.73,26.73,0,0,1,55.87,48Z"/><path class="cls-4" d="M79.94,49.74c1.23-5.76,16.31,0,20.13-.22a9,9,0,0,0,7.38-4.73,1.11,1.11,0,0,0-1.91-1.11c-4,7-13.17,2.11-19.16,1.32-3.36-.44-7.78.47-8.56,4.16-.3,1.38,1.83,2,2.12.58Z"/><path class="cls-4" d="M187.1,59.42H.76A.76.76,0,0,1,0,58.65H0a.76.76,0,0,1,.76-.76H187.1a.76.76,0,0,1,.76.76h0A.76.76,0,0,1,187.1,59.42Z"/><path class="cls-4" d="M187.1,109H.76a.77.77,0,0,1-.76-.77H0a.76.76,0,0,1,.76-.76H187.1a.76.76,0,0,1,.76.76h0A.77.77,0,0,1,187.1,109Z"/><text class="cls-5" transform="translate(1.72 125.72)">PREMIUM BLENDS</text></g></g></svg>