<svg xmlns="http://www.w3.org/2000/svg" viewBox="0 0 200.5 212.32"><defs><style>.cls-1{font-size:8.49px;fill:#fefefe;font-family:Mohave-Light, Mohave Light;letter-spacing:0.5em;}.cls-1,.cls-7{font-weight:300;}.cls-2{font-size:88.91px;font-family:NautilusPompilius;letter-spacing:-0.02em;}.cls-2,.cls-3,.cls-5,.cls-6,.cls-7{fill:#383838;}.cls-3{font-size:41.19px;font-family:LuxiSerif-BoldOblique, LuxiSerif BoldOblique;font-weight:700;font-style:oblique;}.cls-4{letter-spacing:-0.01em;}.cls-6{font-size:11.09px;font-family:BebasNeueRegular;}.cls-7{font-size:11.01px;font-family:Antonio-Light, Antonio Light;}</style></defs><title>logo-1_4</title><g id="Layer_2" data-name="Layer 2"><g id="OBJECTS"><text class="cls-1" transform="matrix(1, -0.07, 0.07, 1, 57.73, 161.08)">SINCE 2016</text><text class="cls-2" transform="matrix(1, -0.07, 0.07, 1, 11.99, 150.78)">brew</text><text class="cls-3" transform="matrix(1, -0.07, 0.07, 1, 40.08, 97.78)"><tspan class="cls-4">c</tspan><tspan x="18.21" y="0">old</tspan></text><path class="cls-5" d="M127.83,64.21c.09-1.54-.22-4.95-2.38-5.35-2.08-.69-4,2.15-4.66,3.54A21.43,21.43,0,0,0,119,74.87c.12.76.38,3,1.49,3.29s2.42-1.56,2.89-2.16A21.48,21.48,0,0,0,127.83,64.21Z"/><path class="cls-5" d="M144.12,85.53c1.51.34,4.69,1.58,4.48,3.77.08,2.19-3.17,3.24-4.7,3.49a21.32,21.32,0,0,1-12.47-1.74c-.7-.33-2.77-1.2-2.75-2.34s2.17-1.89,2.88-2.17A21.29,21.29,0,0,1,144.12,85.53Z"/><path class="cls-5" d="M124.08,80.21c.83-.52,2.82-1.39,3.71-.31s0,2.88-.55,3.68a13.63,13.63,0,0,1-6.41,4.82c-.46.16-1.79.7-2.29.17s.13-1.82.32-2.27A13.54,13.54,0,0,1,124.08,80.21Z"/><path class="cls-5" d="M154.46,61c-3.54-4.8-11.77-4.72-18.38.17S127,73.9,130.51,78.69s11.77,4.71,18.39-.17S158,65.79,154.46,61Zm-3.53,2.91c-1.55,2.72-3.25,5.08-6.38,6-3.78,1.15-8.17,1.54-9.22,6.14-.14.62-1.13.48-1-.15a7.77,7.77,0,0,1,5.89-5.86,32.64,32.64,0,0,0,5-1.46c2.28-1.06,3.52-3,4.73-5.1C150.33,63,151.25,63.35,150.93,63.91Z"/><path class="cls-5" d="M89.66,200.49a89.66,89.66,0,1,1,89.66-89.66A89.77,89.77,0,0,1,89.66,200.49Zm0-178.06a88.4,88.4,0,1,0,88.4,88.4A88.5,88.5,0,0,0,89.66,22.43Z"/><path class="cls-5" d="M89.66,44.57a66.31,66.31,0,0,0-59,36.16.63.63,0,0,0,.23.81h0a.61.61,0,0,0,.87-.25,64.87,64.87,0,0,1,89.73-27.08.61.61,0,0,0,.86-.28v0a.62.62,0,0,0-.25-.8A65.84,65.84,0,0,0,89.66,44.57Z"/><path class="cls-5" d="M145.43,145.21a.62.62,0,0,0-.79.23A64.88,64.88,0,0,1,42.56,155.53a.62.62,0,0,0-.84-.05h0a.63.63,0,0,0-.06.92,66.15,66.15,0,0,0,104-10.29.63.63,0,0,0-.26-.9Z"/><text class="cls-6" transform="translate(33.61 171.04) rotate(41.66)">P</text><text class="cls-6" transform="matrix(0.84, 0.55, -0.55, 0.84, 42.97, 178.75)">R</text><text class="cls-6" transform="translate(53.37 185.03) rotate(25.06)">E</text><text class="cls-6" transform="matrix(0.96, 0.27, -0.27, 0.96, 64.18, 189.67)">M</text><text class="cls-6" transform="matrix(0.99, 0.13, -0.13, 0.99, 78.89, 193.11)">I</text><text class="cls-6" transform="translate(87.66 193.98) rotate(-0.35)">U</text><text class="cls-6" transform="translate(101.16 193.41) rotate(-10.34)">M</text><text class="cls-6" transform="translate(115.88 190.05) rotate(-18.43)"> </text><text class="cls-6" transform="translate(123.82 187.12) rotate(-25.56)">B</text><text class="cls-6" transform="translate(134.61 181.44) rotate(-33.81)">L</text><text class="cls-6" transform="matrix(0.74, -0.67, 0.67, 0.74, 143.86, 174.73)">E</text><text class="cls-6" transform="translate(152.29 166.63) rotate(-50.6)">N</text><text class="cls-6" transform="translate(160.51 155.81) rotate(-60.01)">D</text><text class="cls-6" transform="translate(166.85 143.74) rotate(-68.76)">S</text><text class="cls-6" transform="translate(170.6 132.82) rotate(-75.68)"> </text><text class="cls-7" transform="translate(25.6 76.54) rotate(-60.35)">•</text><text class="cls-7" transform="translate(29.86 69.54) rotate(-52.58)">C</text><text class="cls-7" transform="translate(36.91 60.89) rotate(-43.25)">O</text><text class="cls-7" transform="translate(46.41 52.61) rotate(-34.21)">F</text><text class="cls-7" transform="translate(55.23 47.05) rotate(-26.15)">F</text><text class="cls-7" transform="translate(64.72 42.79) rotate(-17.93)">E</text><text class="cls-7" transform="translate(74.79 39.91) rotate(-9.62)">E</text><text class="cls-7" transform="translate(85.25 38.56) rotate(-2.5)"> </text><text class="cls-7" transform="translate(92.7 38.46) rotate(4.58)">S</text><text class="cls-7" transform="translate(103.09 39.61) rotate(13.44)">H</text><text class="cls-7" transform="translate(114.82 42.83) rotate(23.1)">O</text><text class="cls-7" transform="matrix(0.85, 0.53, -0.53, 0.85, 126.2, 48.2)">P</text><text class="cls-7" transform="translate(135.21 54.4) rotate(39.89)">•</text></g></g></svg>