<svg xmlns="http://www.w3.org/2000/svg" viewBox="0 0 100 75.27"><defs><style>.cls-1{fill:#2b2828;}.cls-2{fill:none;stroke:#c2c2c2;stroke-linecap:round;stroke-miterlimit:10;stroke-width:2px;}.cls-3{fill:#fff;}</style></defs><title>utensil</title><g id="Layer_2" data-name="Layer 2"><g id="Layer_1-2" data-name="Layer 1"><path class="cls-1" d="M98,36.74,85.52,40c-.06-4-.15-6.91-.15-6.91H14.77S14.68,36,14.61,40L2,36.74C.53,36.36-.84,41.66.63,42l13.92,3.58c0,5.19,0,10.79.36,14.2C15.63,67.6,17.5,72.2,28.3,73.93a132.29,132.29,0,0,0,21.77,1.32,132.39,132.39,0,0,0,21.77-1.32C82.63,72.2,84.5,67.6,85.22,59.82c.32-3.42.39-9,.36-14.23L99.37,42C100.84,41.66,99.47,36.36,98,36.74Z"/><path class="cls-2" d="M26.25,32.7c2.4-3.4,1.5-7.34-2.42-9.83l.13.06c-3.92-2.49-4.28-7-.71-12.1,2.4-3.4,1.5-7.34-2.41-9.83"/><path class="cls-2" d="M30,18.25c-2.54-2.31-2.34-5.53,1-8.91,2.38-2.4,2-5.15-.52-7.46"/><path class="cls-1" d="M57.49,17.55l1-2.1c-2.12-.75-3.51-2-3.32-3.13.24-1.5,3-2.28,6.22-1.76s5.58,2.16,5.33,3.65c-.19,1.16-1.9,1.88-4.14,1.91l.26,2.31C80.89,21.69,94.63,27.22,94,31.12L23.91,19.63C24.55,15.73,39.34,14.87,57.49,17.55Z"/><path class="cls-1" d="M37.55,20.1l-8.68-1.42c1.84-1.63,9.13-2,18.55-1.05C37.59,17.4,37.34,19.39,37.55,20.1Z"/><path class="cls-1" d="M57.1,14a1.27,1.27,0,0,1-.24-1.18c.21-1.22,2.46-1.9,4.89-1.7L61.33,11c-2.71-.45-5,.26-5.23,1.41C56,13,56.41,13.51,57.1,14Z"/><path class="cls-3" d="M40.76,71.74C30.72,70.16,29,66,28.31,58.88c-.57-6.08-.26-19.68-.16-23.42H17.41c-.1,3.65-.42,17.37.16,23.49C18.23,66,20,70.23,30,71.81A125.78,125.78,0,0,0,50.25,73C51.4,73,46.87,72.7,40.76,71.74Z"/></g></g></svg>